<svg width="232" height="232" viewBox="0 0 232 232" fill="none"
    xmlns="http://www.w3.org/2000/svg">
    <path d="M9,0,1.15,4.49v3L4.2,9.34V7.54L2.6,6.62V5.38L9,1.68l6.4,3.71v7.18L9,16.27,1.15,11.78v1.68L9,18l7.85-4.49v-9Z" fill="#a3a3a3" />
    <polygon points="9 0 9 0 1.15 4.49 2.6 5.38 9 1.68 9 1.68 15.4 5.38 16.85 4.49 9 0" fill="#949494" />
    <polygon points="13.25 6.54 13.25 11.46 9 13.93 9 9.01 13.25 6.54" fill="#32bedd" />
    <polygon points="13.25 6.54 9 9.01 4.75 6.54 9 4.07 13.25 6.54" fill="#9cebff" />
    <polygon points="9 9.01 9 13.93 4.75 11.46 4.75 6.54 9 9.01" fill="#50e6ff" />
    <polygon points="4.75 11.46 9 9.01 9 13.93 4.75 11.46" fill="#9cebff" />
    <polygon points="13.25 11.46 9 9.01 9 13.93 13.25 11.46" fill="#50e6ff" />
    <defs>
        <filter id="filter0_b" x="-4" y="-4" width="240" height="240" filterUnits="userSpaceOnUse" color-interpolation-filters="sRGB">
            <feFlood flood-opacity="0" result="BackgroundImageFix"/>
            <feGaussianBlur in="BackgroundImage" stdDeviation="2"/>
            <feComposite in2="SourceAlpha" operator="in" result="effect1_backgroundBlur"/>
            <feBlend mode="normal" in="SourceGraphic" in2="effect1_backgroundBlur" result="shape"/>
        </filter>
    </defs>
</svg>
